<?xml version="1.0" encoding="UTF-8"?>
<svg width="512" height="512" viewBox="0 0 512 512" fill="none" xmlns="http://www.w3.org/2000/svg">
  <!-- Background with modern gradient -->
  <rect width="512" height="512" rx="256" fill="url(#backgroundGradient)"/>
  
  <!-- Glowing background effect -->
  <circle cx="256" cy="256" r="200" fill="url(#glowGradient)" filter="url(#glow)"/>
  
  <!-- Logo elements with enhanced effects -->
  <g filter="url(#mainShadow)">
    <!-- P with gradient -->
    <path d="M156 176H196C226.928 176 252 201.072 252 232V232C252 262.928 226.928 288 196 288H156V176Z" fill="url(#letterGradient)"/>
    <path d="M156 288V176L252 288H156Z" fill="url(#letterGradient)"/>
    
    <!-- M with gradient -->
    <path d="M276 176H316L276 288H236L276 176Z" fill="url(#letterGradient)"/>
    <path d="M356 176H276L356 288H276L356 176Z" fill="url(#letterGradient)"/>
  </g>

  <!-- Subtle overlay pattern -->
  <rect width="512" height="512" rx="256" fill="url(#noisePattern)" style="mix-blend-mode: overlay" opacity="0.1"/>

  <!-- Definitions -->
  <defs>
    <!-- Main background gradient -->
    <linearGradient id="backgroundGradient" x1="0" y1="0" x2="512" y2="512" gradientUnits="userSpaceOnUse">
      <stop offset="0%" style="stop-color:#000000"/>
      <stop offset="50%" style="stop-color:#111111"/>
      <stop offset="100%" style="stop-color:#1a1a1a"/>
    </linearGradient>

    <!-- Glow effect gradient -->
    <radialGradient id="glowGradient" cx="0.5" cy="0.5" r="0.5">
      <stop offset="0%" style="stop-color:#39E535;stop-opacity:0.2"/>
      <stop offset="100%" style="stop-color:#39E535;stop-opacity:0"/>
    </radialGradient>

    <!-- Letter gradient -->
    <linearGradient id="letterGradient" x1="0" y1="176" x2="0" y2="288" gradientUnits="userSpaceOnUse">
      <stop offset="0%" style="stop-color:#39E535"/>
      <stop offset="50%" style="stop-color:#32CD32"/>
      <stop offset="100%" style="stop-color:#39E535"/>
    </linearGradient>

    <!-- Noise pattern -->
    <pattern id="noisePattern" x="0" y="0" width="32" height="32" patternUnits="userSpaceOnUse">
      <path d="M16 0L32 16L16 32L0 16L16 0Z" fill="#ffffff" opacity="0.05"/>
    </pattern>

    <!-- Enhanced shadow effect -->
    <filter id="mainShadow" x="-10" y="-10" width="532" height="532" filterUnits="userSpaceOnUse">
      <feGaussianBlur in="SourceAlpha" stdDeviation="3"/>
      <feOffset dx="0" dy="2" result="offsetblur"/>
      <feFlood flood-color="#39E535" flood-opacity="0.3"/>
      <feComposite in2="offsetblur" operator="in"/>
      <feMerge>
        <feMergeNode/>
        <feMergeNode in="SourceGraphic"/>
      </feMerge>
    </filter>

    <!-- Glow effect -->
    <filter id="glow" x="-50%" y="-50%" width="200%" height="200%">
      <feGaussianBlur in="SourceGraphic" stdDeviation="20"/>
    </filter>
  </defs>
</svg> 